<?xml version="1.0" encoding="utf-8"?>
<!-- Generator: Adobe Illustrator 22.1.0, SVG Export Plug-In . SVG Version: 6.00 Build 0)  -->
<svg version="1.1" id="Layer_1" xmlns="http://www.w3.org/2000/svg" xmlns:xlink="http://www.w3.org/1999/xlink" x="0px" y="0px"
	 viewBox="0 0 612 792" style="enable-background:new 0 0 612 792;" xml:space="preserve">
<style type="text/css">
	.st0{fill:#1E4FA0;}
	.st1{fill:#528DBE;}
	.st2{fill:#1E81A0;}
	.st3{fill:#765FC3;}
	.st4{fill:#A01E56;}
	.st5{fill:#FEFEFE;}
</style>
<path class="st0" d="M451.7,210.7c2.9-3.6,5.4-7.4,8.1-11.2c5.6-7.7,11.1-15.5,16.7-23.2c0.4-0.6,0.9-1.1,1.5-1.9
	c28.9,22.9,52.5,50.2,70.6,82.2c18,31.9,29.2,66,33.6,102.3c4.5,36.5,1.8,72.4-7.9,107.9c-7.8,1.4-15.7,2.7-23.5,4.1
	c-7.3,1.3-14.6,2.7-21.8,4c-1.5,0.3-2.9,0.5-4.4,0.7c-5.5,1-11,2.2-16.4,2.9c-0.4-0.3-0.5-0.3-0.6-0.4c-3.9-3.8-7.7-7.6-11.6-11.3
	c-0.1-0.1-0.3,0-0.5,0c-0.1-0.3-0.2-0.5-0.6-0.5l0,0c-2.2-2.7-4.9-4.8-7.3-7.2c-8.3-7.9-16.5-15.8-24.8-23.6
	c-1.9-1.8-3.8-3.5-5.6-5.2c6.7-28.8,5.7-57.2-3.4-85.1c-9.2-28-25.3-51.4-47.6-70.5c0.1-0.2,0.1-0.4,0.2-0.5
	c7.8-10.9,15.6-21.7,23.3-32.6c1.3-1.8,2.9-3.4,3.7-5.6l0,0c0.4,0,0.5-0.3,0.7-0.5c0.5-0.3,0.9-0.8,1.5-1.1c2.7-1.3,5.3-2.8,8-4.2
	c2-1.1,3.9-2.2,5.8-3.3c0.1-0.9,0.1-1.7,0.2-2.4c0.4-2.7,1-5.4,1.3-8.2C450.9,214.5,451.3,212.6,451.7,210.7z"/>
<path class="st1" d="M294.2,626.7c0,14.5,0,28.9,0,43.5c-2.4,0-4.7,0.3-6.9-0.1c-2.6-0.4-5.1-0.4-7.7-0.7c-6-0.6-12-1.4-18-2.4
	c-5.9-0.9-11.8-2.1-17.6-3.4c-14.8-3.4-29.2-7.9-43.2-13.7c-7.2-3-14.3-6.2-21.2-9.8c-14.9-7.7-28.9-16.5-42.2-26.7
	c-6.3-4.9-12.4-10-18.3-15.4c-5.9-5.3-11.5-10.9-16.9-16.7c-11.2-12.1-21.2-25.1-30.1-39c-3.9-6.2-7.6-12.5-11.1-19
	c-6.1-11.3-11.1-22.9-15.6-34.9c0.2-0.7,0.7-1,1.2-1.5c8.8-9,17.6-18,26.4-27.1c2.1-2.2,4.2-4.4,6.3-6.6c0.3-0.3,0.5-0.6,0.6-1
	c0.9-0.4,1.5-1.1,2.1-1.8c3.2-3.2,6.4-6.3,9.3-9.7c2.3-0.2,4.4,0.4,6.6,0.6c3.7,0.4,7.3,1.3,11,1.3c0.2,0.4,0.6,0.4,1,0.4
	c2.7,0.3,5.4,0.7,8.1,1c4,0.6,8,1.2,12,1.7c3.9,0.5,7.9,1,11.8,1.5c4.3,0.6,8.6,1.1,12.9,1.9c2.3,0.4,4.6,0.3,6.7,1.1
	c11.1,27.7,28.5,50.5,52.4,68.2c23.8,17.6,50.6,27.5,80.3,29.9c0,15.9,0,31.6,0,47.3c0,0.5-0.2,0.9-0.4,1.3
	c-2.1,4.2-3.9,8.6-6.1,12.7c-0.5,1-0.9,2-0.2,3.1c1.1,2,2,4,3.1,6C292,621.4,293.4,623.9,294.2,626.7z"/>
<path class="st2" d="M294.2,626.7c-0.8-2.8-2.3-5.2-3.7-7.7c-1.1-2-2-4-3.1-6c-0.6-1.1-0.3-2.1,0.2-3.1c2.3-4.1,4-8.5,6.1-12.7
	c0.2-0.4,0.5-0.8,0.4-1.3c0.7-0.5,1-1.4,1.3-2.1c6.7-13.6,13.4-27.3,20.1-40.9c0.7-1.5,1.2-3,2.1-4.3c29.3-2.4,55.8-12,79.5-29.2
	c23.8-17.3,41.2-39.7,52.6-66.8c0.4,0.1,0.6,0,0.9,0.1c13.5,4.3,27,8.6,40.5,12.8c1.2,0.4,2.3,1,3.6,0.7l0,0
	c-0.1,0.5,0.3,0.4,0.6,0.5c0.2,0,0.4,0,0.5,0c3.9,3.8,7.7,7.6,11.6,11.3c0.1,0.1,0.3,0.2,0.6,0.4c5.4-0.7,10.9-1.9,16.4-2.9
	c1.5,1.1,3.3,1.3,4.9,1.8c11.9,3.8,23.7,7.5,35.6,11.3c0.6,0.2,1.1,0.4,1.9,0.7c-20,52.5-52.3,95.4-97.6,128.3
	c-45.2,32.9-96,50.1-151.9,52.7c-2.9-5.5-5.8-11.2-8.7-16.7c-4.4-8.4-8.8-16.9-13.3-25.3C295.2,627.9,295,627.1,294.2,626.7z"/>
<path class="st3" d="M451.7,210.7c-0.3,1.9-0.8,3.7-1,5.6c-0.3,2.7-0.9,5.4-1.3,8.2c-0.1,0.8-0.1,1.5-0.2,2.4
	c-1.9,1.1-3.8,2.2-5.8,3.3c-2.6,1.4-5.3,2.9-8,4.2c-0.6,0.3-1,0.8-1.5,1.1c-0.3,0-0.7,0-0.7,0.5l0,0c-0.6-0.2-1,0.1-1.5,0.4
	c-13,6.9-26,13.9-38.9,20.8c-2.1,1.1-4.3,2.1-6,3.7c-46.5-28.5-108.9-31.7-161.4-0.1c-0.5-0.1-0.7-0.6-1-0.9
	c-5.3-7.4-10.5-14.9-15.9-22.3c-3.7-5.1-7.2-10.4-11.1-15.3c-0.2-0.5-0.5-0.9-0.5-1.5c-0.1-1.7-0.6-3.3-0.8-5
	c-0.4-3.4-1.4-6.8-1.6-10.2c-0.1-0.2-0.3-0.4-0.4-0.5c-4.8-2.9-10-4.9-14.8-7.7c-0.3-2-1.8-3.2-2.9-4.7
	c-6.6-9.3-13.2-18.5-19.9-27.8c-0.9-1.3-1.8-2.5-2.9-4c37.9-24.8,79.2-39.8,124.1-44.3c65.4-6.5,125.7,8.4,180.9,43.8
	c-0.5,3.9-1,7.6-1.5,11.3c-0.6,3.9-1.2,7.8-1.8,11.7c-0.6,3.8-1.2,7.7-1.8,11.5c-0.5,3.8-1,7.5-1.5,11.3
	C452,207.8,451.5,209.2,451.7,210.7z"/>
<path class="st4" d="M179.2,197.4c4.8,2.7,10,4.8,14.8,7.7c0.2,0.1,0.3,0.4,0.4,0.5c0.3,3.5,1.3,6.8,1.6,10.2c0.2,1.7,0.7,3.3,0.8,5
	c0.1,0.6,0.3,1,0.5,1.5c0.3,2.7,0.8,5.4,1.3,8c1.2,7,2.3,13.9,3.4,20.9c1.3,7.9,2.7,15.7,4.1,23.5c-22.2,18.9-38,41.9-47.2,69.4
	c-9.2,27.4-10.6,55.3-4.4,83.7c-15.3,5-30.5,10-45.6,15c-3.7,0-7.4-0.9-11-1.3c-2.1-0.2-4.3-0.9-6.6-0.6c-2.9,3.4-6.2,6.5-9.3,9.7
	c-0.6,0.7-1.2,1.4-2.1,1.8c-6.1,2-12.1,3.9-18.2,5.9c-7.2,2.4-14.5,4.8-21.7,7.1c-0.5,0.2-1,0.4-1.8,0.2
	c-13.5-51.3-13.1-102.6,2.3-153.5c16.8-55.6,48.6-101.2,93.7-137.4C149.4,182.4,164.3,189.9,179.2,197.4z"/>
<path class="st5" d="M433.3,236c0-0.5,0.3-0.5,0.7-0.5C433.8,235.7,433.7,236.1,433.3,236z"/>
<path class="st5" d="M495.5,466.8c-0.3-0.1-0.7,0-0.6-0.5C495.2,466.3,495.4,466.5,495.5,466.8z"/>
</svg>
