<?xml version="1.0" encoding="utf-8"?>
<!-- Generator: Adobe Illustrator 22.1.0, SVG Export Plug-In . SVG Version: 6.00 Build 0)  -->
<svg version="1.1" id="Layer_1" xmlns="http://www.w3.org/2000/svg" xmlns:xlink="http://www.w3.org/1999/xlink" x="0px" y="0px"
	 viewBox="0 0 612 792" style="enable-background:new 0 0 612 792;" xml:space="preserve">
<style type="text/css">
	.st0{fill:#1E4FA0;}
	.st1{fill:#528CBE;}
	.st2{fill:#1E80A0;}
	.st3{fill:#755FC3;}
	.st4{fill:#A01E56;}
</style>
<path class="st0" d="M453.5,208.9c8.2-11.4,16.5-22.9,24.7-34.3c1.8-2.5,1.8-2.5,4.2-0.6c52,42.5,85.3,96.4,99.3,162.1
	c5.3,24.8,6.9,50,5.3,75.3c-1.2,18.6-4.2,36.9-9.1,54.9c-0.2,0.8-0.2,1.6-1.6,1.9c-13.1,2.2-26.2,4.6-39.3,6.9
	c-3.3,0.6-6.5,1.1-9.8,1.7c-0.7,0.9-1.8,1-2.8,1.2c-3.7,0.7-7.5,1.3-11.2,2.1c-2.2,0.5-3.9-0.5-5.3-1.9c-3.5-3.5-7.2-6.9-10.7-10.4
	c-2.8-2.4-5.5-5-8.2-7.6c-8-7.8-16.3-15.2-24.2-23.1c-1.7-1.7-3.6-3-5.3-4.8c-1-1-1.2-2-0.8-3.4c2-8,3-16.2,3.6-24.4
	c0.3-4.3,0.4-8.5,0.4-12.8c-0.2-17.3-3.3-34.2-9.1-50.5c-6-16.8-14.7-32.1-25.9-45.9c-5.8-7.1-12.1-13.8-19.1-19.7
	c-2.1-1.8-2.1-2.1-0.6-4.3c8.9-12.6,18-25.1,27-37.7c2.7-2.1,5.8-3.6,8.8-5.1c6.3-3.2,6.3-3.2,7.4-10.1c0.4-2.4,0.7-4.8,1.1-7.3
	C452.5,210.3,452.6,209.4,453.5,208.9z"/>
<path class="st1" d="M294.6,629.6c-0.5,0.8-0.3,1.7-0.3,2.5c0,13.1-0.1,26.1,0,39.2c0,2-0.6,2.5-2.5,2.4c-31.6-1.6-62-8.4-91.2-20.3
	c-38.4-15.7-71.7-38.8-99.9-69.2c-25.4-27.3-44.6-58.6-57.7-93.6c-0.5-1.3,0.3-1.5,0.8-2.1c10.7-11.1,21.5-22.2,32.3-33.3
	c0.5-0.6,1.3-1,1.4-1.8c-0.1-0.6,0.4-1,0.8-1.4c3.1-3.1,6.4-6.1,9.2-9.6c1.1-1.4,2.6-1.6,4.3-1.4c5.1,0.6,10.2,1.6,15.3,2
	c9.6,1.6,19.3,2.7,28.9,4.1c7.2,1,14.4,2.1,21.7,2.9c2,0.2,3.2,1.2,4,3.1c6.3,15.3,14.8,29.2,25.5,41.8c11.4,13.5,24.8,24.6,40,33.7
	c17.5,10.4,36.3,16.9,56.3,19.9c2.9,0.4,5.8,0.6,8.7,1.1c2.7,0.5,2.8,0.7,2.9,3.7c0,13.8,0,27.6,0,41.4c0,1.2-0.1,2.4,0.1,3.6
	c-1.7,4.5-3.8,8.8-6.1,13c-1.3,2.3-1.2,4.1,0.1,6.3c1.9,3.2,3.6,6.4,5.2,9.8C294.5,628.1,295.3,628.7,294.6,629.6z"/>
<path class="st2" d="M294.6,629.6c-2.4-4.5-4.7-9.1-7.1-13.6c-0.6-1.1-0.6-1.9-0.1-3.1c2.4-4.8,4.8-9.7,7.2-14.6
	c-0.2-1.3,0.4-2.3,0.9-3.3c6.3-12.5,12.2-25.2,18.6-37.7c1-1.9,1.7-3.9,2.7-5.8c0.6-1.1,1.3-1.6,2.6-1.7
	c18.3-1.6,35.8-6.1,52.5-13.8c14.5-6.8,27.7-15.5,39.6-26.3c13.2-11.9,23.8-25.7,32.4-41.2c2.3-4.2,4.3-8.6,6.3-13
	c1.1-2.3,1.6-2.6,4-1.8c13.6,4.3,27.2,8.6,40.8,12.8c0.9,0.3,1.6,1.1,2.6,1c3.5,3.4,7,6.8,10.4,10.2c1.7,1.7,3.3,2.4,5.9,1.8
	c4.3-1.1,8.8-1.7,13.2-2.5c1.9,1.3,4.2,1.6,6.4,2.3c11.5,3.7,23,7.3,34.6,10.9c1.7,0.5,1.8,1.1,1.2,2.6
	c-17.3,45.1-44.3,83.4-81.1,114.7c-35.5,30.2-76.1,50.3-121.6,60.3c-15.9,3.5-31.9,5.7-48.2,6.1c-0.4-0.6-0.2-1.4-0.2-2.1
	c0-30.3,0-60.7,0-91c0-0.6-0.2-1.3,0-1.5c0,0.4,0,1.2,0,1.9c0,30,0,60,0,90c0,0.8,0.6,1.9-0.5,2.5c-7-13.3-13.9-26.6-20.9-39.8
	C296.1,632.4,295.4,631,294.6,629.6z"/>
<path class="st3" d="M453.5,208.9c-0.8,4.9-1.7,9.8-2.3,14.7c-0.2,1.5-0.8,2.2-2.1,2.8c-4.6,2.5-9.1,5-13.7,7.5
	c-3.2,2.8-7.2,4.3-10.9,6.3c-10.5,5.6-21.1,10.9-31.3,16.9c-4.3,2.5-7.2,2.2-11.2-0.1c-16.4-9.5-34.2-15.2-53-18
	c-9.8-1.5-19.7-2.1-29.6-1.6c-20.6,1.2-40.4,5.6-59.1,14.5c-4.5,2.1-8.8,4.6-13.2,6.9c-2.6,1.4-2.9,1.4-4.7-1
	c-8.2-11.4-16.3-22.8-24.5-34.2c-0.7-1-1.5-1.9-2.1-2.9c-1.4-4.1-1.9-8.5-2.4-12.8c-0.5-3.4-1.8-5.4-5-6.7c-2.9-1.1-5.5-2.7-8.3-4.1
	c-0.8-0.4-1.9-0.6-1.9-1.8c-4-6.4-8.6-12.3-13-18.4c-3.9-5.6-7.9-11.1-11.9-16.6c-1.1-1.5-1-2.1,0.6-3.2
	c22.8-14.7,47.2-26,73.3-33.6c21.7-6.4,43.9-10.1,66.5-11.1c53.1-2.3,103,9.4,149.6,35.1c5.3,2.9,10.5,6.1,15.7,9.4
	c1.2,0.7,1.7,1.4,1.4,3c-2.4,15.6-4.6,31.3-6.8,46.9C453.5,207.6,453.5,208.2,453.5,208.9z"/>
<path class="st4" d="M178.2,195.4c4.2,2.5,8.7,4.5,13,6.7c1.4,0.7,2.1,1.6,2.3,3.2c0.8,5.1,1.8,10.2,2.8,15.3
	c2.1,6.1,2.6,12.5,3.7,18.8c1.8,10.2,3.4,20.5,5.3,30.7c0.5,2.7-0.1,4.5-2.3,6.4c-17.9,15.7-31.5,34.6-40.8,56.5
	c-6.4,15.1-10.3,30.9-11.8,47.3c-1.4,14.6-0.4,29.1,2.3,43.5c0.2,0.9,0.3,1.7,0.5,2.6c0.4,1.7-0.2,2.8-1.8,3.3
	c-0.8,0.3-1.7,0.6-2.5,0.8c-12.6,4.3-25.3,8.3-37.9,12.5c-1.3,0.4-2.7,0.8-4.2,0.7c-4.9-0.1-9.7-1.1-14.5-1.8
	c-2.2-0.3-3.7,0.2-5.1,1.8c-3.1,3.5-6.2,6.9-9.8,9.8c-7.7,2.5-15.3,4.9-23,7.4c-5.6,1.8-11.3,3.6-16.9,5.6c-1.5,0.5-2.1,0.5-2.6-1.3
	c-4.3-16.3-7-32.9-8.4-49.8c-1.4-17.3-1.2-34.5,0.6-51.7c4.8-45.8,20-87.9,45.5-126.3c16-24.1,35.3-45,57.8-63.2
	c1.1-0.9,1.8-1.9,3.8-0.8C148.9,180.8,163.6,188.1,178.2,195.4z"/>
</svg>
